<svg width="72" height="72" viewBox="0 0 72 72" xmlns="http://www.w3.org/2000/svg">
  <!-- Background gradient -->
  <defs>
    <linearGradient id="grad" x1="0%" y1="0%" x2="100%" y2="100%">
      <stop offset="0%" style="stop-color:#3b82f6;stop-opacity:1" />
      <stop offset="100%" style="stop-color:#1e40af;stop-opacity:1" />
    </linearGradient>
  </defs>
  
  <!-- Rounded square background -->
  <rect width="72" height="72" rx="10.799999999999999" fill="url(#grad)"/>
  
  <!-- Book icon -->
  <g transform="translate(18, 18)">
    <path d="M 5.76 0 L 30.24 0 C 33.839999999999996 0 36 2.16 36 5.76 L 36 30.24 C 36 33.839999999999996 33.839999999999996 36 30.24 36 L 5.76 36 C 2.16 36 0 33.839999999999996 0 30.24 L 0 5.76 C 0 2.16 2.16 0 5.76 0 Z" 
          fill="white" opacity="0.9"/>
    <rect x="7.2" y="10.799999999999999" width="21.599999999999998" height="2.16" fill="#3b82f6" rx="0.72"/>
    <rect x="7.2" y="16.560000000000002" width="18" height="2.16" fill="#3b82f6" rx="0.72"/>
    <rect x="7.2" y="22.32" width="20.160000000000004" height="2.16" fill="#3b82f6" rx="0.72"/>
  </g>
</svg>