<svg width="384" height="384" viewBox="0 0 384 384" xmlns="http://www.w3.org/2000/svg">
  <!-- Background gradient -->
  <defs>
    <linearGradient id="grad" x1="0%" y1="0%" x2="100%" y2="100%">
      <stop offset="0%" style="stop-color:#3b82f6;stop-opacity:1" />
      <stop offset="100%" style="stop-color:#1e40af;stop-opacity:1" />
    </linearGradient>
  </defs>
  
  <!-- Rounded square background -->
  <rect width="384" height="384" rx="57.599999999999994" fill="url(#grad)"/>
  
  <!-- Book icon -->
  <g transform="translate(96, 96)">
    <path d="M 30.72 0 L 161.28 0 C 180.48 0 192 11.52 192 30.72 L 192 161.28 C 192 180.48 180.48 192 161.28 192 L 30.72 192 C 11.52 192 0 180.48 0 161.28 L 0 30.72 C 0 11.52 11.52 0 30.72 0 Z" 
          fill="white" opacity="0.9"/>
    <rect x="38.400000000000006" y="57.599999999999994" width="115.19999999999999" height="11.52" fill="#3b82f6" rx="3.84"/>
    <rect x="38.400000000000006" y="88.32000000000001" width="96" height="11.52" fill="#3b82f6" rx="3.84"/>
    <rect x="38.400000000000006" y="119.03999999999999" width="107.52000000000001" height="11.52" fill="#3b82f6" rx="3.84"/>
  </g>
</svg>