<svg width="144" height="144" viewBox="0 0 144 144" xmlns="http://www.w3.org/2000/svg">
  <!-- Background gradient -->
  <defs>
    <linearGradient id="grad" x1="0%" y1="0%" x2="100%" y2="100%">
      <stop offset="0%" style="stop-color:#3b82f6;stop-opacity:1" />
      <stop offset="100%" style="stop-color:#1e40af;stop-opacity:1" />
    </linearGradient>
  </defs>
  
  <!-- Rounded square background -->
  <rect width="144" height="144" rx="21.599999999999998" fill="url(#grad)"/>
  
  <!-- Book icon -->
  <g transform="translate(36, 36)">
    <path d="M 11.52 0 L 60.48 0 C 67.67999999999999 0 72 4.32 72 11.52 L 72 60.48 C 72 67.67999999999999 67.67999999999999 72 60.48 72 L 11.52 72 C 4.32 72 0 67.67999999999999 0 60.48 L 0 11.52 C 0 4.32 4.32 0 11.52 0 Z" 
          fill="white" opacity="0.9"/>
    <rect x="14.4" y="21.599999999999998" width="43.199999999999996" height="4.32" fill="#3b82f6" rx="1.44"/>
    <rect x="14.4" y="33.120000000000005" width="36" height="4.32" fill="#3b82f6" rx="1.44"/>
    <rect x="14.4" y="44.64" width="40.32000000000001" height="4.32" fill="#3b82f6" rx="1.44"/>
  </g>
</svg>