<svg width="512" height="512" viewBox="0 0 512 512" xmlns="http://www.w3.org/2000/svg">
  <!-- Background gradient -->
  <defs>
    <linearGradient id="grad" x1="0%" y1="0%" x2="100%" y2="100%">
      <stop offset="0%" style="stop-color:#3b82f6;stop-opacity:1" />
      <stop offset="100%" style="stop-color:#1e40af;stop-opacity:1" />
    </linearGradient>
  </defs>
  
  <!-- Rounded square background -->
  <rect width="512" height="512" rx="76.8" fill="url(#grad)"/>
  
  <!-- Book icon -->
  <g transform="translate(128, 128)">
    <path d="M 40.96 0 L 215.04 0 C 240.64 0 256 15.36 256 40.96 L 256 215.04 C 256 240.64 240.64 256 215.04 256 L 40.96 256 C 15.36 256 0 240.64 0 215.04 L 0 40.96 C 0 15.36 15.36 0 40.96 0 Z" 
          fill="white" opacity="0.9"/>
    <rect x="51.2" y="76.8" width="153.6" height="15.36" fill="#3b82f6" rx="5.12"/>
    <rect x="51.2" y="117.76" width="128" height="15.36" fill="#3b82f6" rx="5.12"/>
    <rect x="51.2" y="158.72" width="143.36" height="15.36" fill="#3b82f6" rx="5.12"/>
  </g>
</svg>