<svg width="96" height="96" viewBox="0 0 96 96" xmlns="http://www.w3.org/2000/svg">
  <!-- Background gradient -->
  <defs>
    <linearGradient id="grad" x1="0%" y1="0%" x2="100%" y2="100%">
      <stop offset="0%" style="stop-color:#3b82f6;stop-opacity:1" />
      <stop offset="100%" style="stop-color:#1e40af;stop-opacity:1" />
    </linearGradient>
  </defs>
  
  <!-- Rounded square background -->
  <rect width="96" height="96" rx="14.399999999999999" fill="url(#grad)"/>
  
  <!-- Book icon -->
  <g transform="translate(24, 24)">
    <path d="M 7.68 0 L 40.32 0 C 45.12 0 48 2.88 48 7.68 L 48 40.32 C 48 45.12 45.12 48 40.32 48 L 7.68 48 C 2.88 48 0 45.12 0 40.32 L 0 7.68 C 0 2.88 2.88 0 7.68 0 Z" 
          fill="white" opacity="0.9"/>
    <rect x="9.600000000000001" y="14.399999999999999" width="28.799999999999997" height="2.88" fill="#3b82f6" rx="0.96"/>
    <rect x="9.600000000000001" y="22.080000000000002" width="24" height="2.88" fill="#3b82f6" rx="0.96"/>
    <rect x="9.600000000000001" y="29.759999999999998" width="26.880000000000003" height="2.88" fill="#3b82f6" rx="0.96"/>
  </g>
</svg>