<svg width="152" height="152" viewBox="0 0 152 152" xmlns="http://www.w3.org/2000/svg">
  <!-- Background gradient -->
  <defs>
    <linearGradient id="grad" x1="0%" y1="0%" x2="100%" y2="100%">
      <stop offset="0%" style="stop-color:#3b82f6;stop-opacity:1" />
      <stop offset="100%" style="stop-color:#1e40af;stop-opacity:1" />
    </linearGradient>
  </defs>
  
  <!-- Rounded square background -->
  <rect width="152" height="152" rx="22.8" fill="url(#grad)"/>
  
  <!-- Book icon -->
  <g transform="translate(38, 38)">
    <path d="M 12.16 0 L 63.839999999999996 0 C 71.44 0 76 4.56 76 12.16 L 76 63.839999999999996 C 76 71.44 71.44 76 63.839999999999996 76 L 12.16 76 C 4.56 76 0 71.44 0 63.839999999999996 L 0 12.16 C 0 4.56 4.56 0 12.16 0 Z" 
          fill="white" opacity="0.9"/>
    <rect x="15.200000000000001" y="22.8" width="45.6" height="4.56" fill="#3b82f6" rx="1.52"/>
    <rect x="15.200000000000001" y="34.96" width="38" height="4.56" fill="#3b82f6" rx="1.52"/>
    <rect x="15.200000000000001" y="47.12" width="42.56" height="4.56" fill="#3b82f6" rx="1.52"/>
  </g>
</svg>