<svg width="128" height="128" viewBox="0 0 128 128" xmlns="http://www.w3.org/2000/svg">
  <!-- Background gradient -->
  <defs>
    <linearGradient id="grad" x1="0%" y1="0%" x2="100%" y2="100%">
      <stop offset="0%" style="stop-color:#3b82f6;stop-opacity:1" />
      <stop offset="100%" style="stop-color:#1e40af;stop-opacity:1" />
    </linearGradient>
  </defs>
  
  <!-- Rounded square background -->
  <rect width="128" height="128" rx="19.2" fill="url(#grad)"/>
  
  <!-- Book icon -->
  <g transform="translate(32, 32)">
    <path d="M 10.24 0 L 53.76 0 C 60.16 0 64 3.84 64 10.24 L 64 53.76 C 64 60.16 60.16 64 53.76 64 L 10.24 64 C 3.84 64 0 60.16 0 53.76 L 0 10.24 C 0 3.84 3.84 0 10.24 0 Z" 
          fill="white" opacity="0.9"/>
    <rect x="12.8" y="19.2" width="38.4" height="3.84" fill="#3b82f6" rx="1.28"/>
    <rect x="12.8" y="29.44" width="32" height="3.84" fill="#3b82f6" rx="1.28"/>
    <rect x="12.8" y="39.68" width="35.84" height="3.84" fill="#3b82f6" rx="1.28"/>
  </g>
</svg>