<svg width="512" height="512" viewBox="0 0 512 512" fill="none" xmlns="http://www.w3.org/2000/svg">
  <!-- Background Gradient -->
  <rect width="512" height="512" rx="112" fill="url(#paint0_linear)"/>
  
  <!-- Book Icon -->
  <path d="M256 128C203 128 160 171 160 224V384C160 401.673 174.327 416 192 416H320C337.673 416 352 401.673 352 384V224C352 171 309 128 256 128Z" fill="white" opacity="0.95"/>
  
  <!-- Book Pages -->
  <line x1="256" y1="160" x2="256" y2="384" stroke="#6366F1" stroke-width="8" stroke-linecap="round"/>
  <line x1="203" y1="213" x2="235" y2="213" stroke="#6366F1" stroke-width="5" stroke-linecap="round" opacity="0.6"/>
  <line x1="203" y1="256" x2="235" y2="256" stroke="#6366F1" stroke-width="5" stroke-linecap="round" opacity="0.6"/>
  <line x1="203" y1="299" x2="235" y2="299" stroke="#6366F1" stroke-width="5" stroke-linecap="round" opacity="0.6"/>
  <line x1="277" y1="213" x2="309" y2="213" stroke="#6366F1" stroke-width="5" stroke-linecap="round" opacity="0.6"/>
  <line x1="277" y1="256" x2="309" y2="256" stroke="#6366F1" stroke-width="5" stroke-linecap="round" opacity="0.6"/>
  <line x1="277" y1="299" x2="309" y2="299" stroke="#6366F1" stroke-width="5" stroke-linecap="round" opacity="0.6"/>
  
  <!-- Checkmark -->
  <circle cx="373" cy="139" r="64" fill="#10B981"/>
  <path d="M352 139L368 155L394 123" stroke="white" stroke-width="8" stroke-linecap="round" stroke-linejoin="round"/>
  
  <!-- Gradient Definition -->
  <defs>
    <linearGradient id="paint0_linear" x1="0" y1="0" x2="512" y2="512" gradientUnits="userSpaceOnUse">
      <stop stop-color="#6366F1"/>
      <stop offset="1" stop-color="#3B82F6"/>
    </linearGradient>
  </defs>
</svg>
